<svg xmlns="http://www.w3.org/2000/svg" width="1600" height="1000" viewBox="0 0 1600 1000">
<defs>
<filter id="shadow" x="-20%" y="-20%" width="140%" height="140%"><feDropShadow dx="0" dy="8" stdDeviation="10" flood-color="#23352D" flood-opacity="0.12"/></filter>
<marker id="arrow" viewBox="0 0 10 10" refX="8" refY="5" markerWidth="8" markerHeight="8" orient="auto-start-reverse"><path d="M 0 0 L 10 5 L 0 10 z" fill="#6C7A72"/></marker>
</defs>
<rect width="1600" height="1000" fill="#F7F9F5"/>
<text x="70.0" y="62.0" fill="#20382D" font-family="Microsoft YaHei, SimSun, sans-serif" font-size="34" font-weight="700">
<tspan x="70.0" dy="0">系统定位与产业化演进路线</tspan>
</text>
<line x1="70.0" y1="112.0" x2="1530.0" y2="112.0" stroke="#D9E2DA" stroke-width="2" stroke-linecap="round"/>
<text x="72.0" y="132.0" fill="#5B6B63" font-family="Microsoft YaHei, SimSun, sans-serif" font-size="22" font-weight="400">
<tspan x="72.0" dy="0">从可运行 WebGIS 原型，演进为可维护、可复用、可交付的风味知识服务。</tspan>
</text>
<rect x="90.0" y="250.0" width="300.0" height="250.0" rx="18" fill="#FFFFFF" stroke="#D5DED6" stroke-width="2" filter="url(#shadow)"/>
<rect x="90.0" y="250.0" width="10" height="250.0" rx="5" fill="#4FA69A"/>
<text x="118.0" y="276.0" fill="#20382D" font-family="Microsoft YaHei, SimSun, sans-serif" font-size="24" font-weight="700">
<tspan x="118.0" dy="0">当前原型</tspan>
</text>
<text x="118.0" y="318.0" fill="#5B6B63" font-family="Microsoft YaHei, SimSun, sans-serif" font-size="18" font-weight="400">
<tspan x="118.0" dy="0">地图探索</tspan>
<tspan x="118.0" dy="23">风味节点</tspan>
<tspan x="118.0" dy="23">叙事章节</tspan>
<tspan x="118.0" dy="23">食材传播</tspan>
</text>
<rect x="460.0" y="250.0" width="300.0" height="250.0" rx="18" fill="#FFFFFF" stroke="#D5DED6" stroke-width="2" filter="url(#shadow)"/>
<rect x="460.0" y="250.0" width="10" height="250.0" rx="5" fill="#315F4D"/>
<text x="488.0" y="276.0" fill="#20382D" font-family="Microsoft YaHei, SimSun, sans-serif" font-size="24" font-weight="700">
<tspan x="488.0" dy="0">数据资产层</tspan>
</text>
<text x="488.0" y="318.0" fill="#5B6B63" font-family="Microsoft YaHei, SimSun, sans-serif" font-size="18" font-weight="400">
<tspan x="488.0" dy="0">风味基因型</tspan>
<tspan x="488.0" dy="23">生态区映射</tspan>
<tspan x="488.0" dy="23">传播事件</tspan>
<tspan x="488.0" dy="23">来源与置信度</tspan>
</text>
<rect x="830.0" y="250.0" width="300.0" height="250.0" rx="18" fill="#FFFFFF" stroke="#D5DED6" stroke-width="2" filter="url(#shadow)"/>
<rect x="830.0" y="250.0" width="10" height="250.0" rx="5" fill="#D6A23F"/>
<text x="858.0" y="276.0" fill="#20382D" font-family="Microsoft YaHei, SimSun, sans-serif" font-size="24" font-weight="700">
<tspan x="858.0" dy="0">内容服务层</tspan>
</text>
<text x="858.0" y="318.0" fill="#5B6B63" font-family="Microsoft YaHei, SimSun, sans-serif" font-size="18" font-weight="400">
<tspan x="858.0" dy="0">专题地图</tspan>
<tspan x="858.0" dy="23">叙事模板</tspan>
<tspan x="858.0" dy="23">接口输出</tspan>
<tspan x="858.0" dy="23">审核发布</tspan>
</text>
<rect x="1200.0" y="250.0" width="300.0" height="250.0" rx="18" fill="#FFFFFF" stroke="#D5DED6" stroke-width="2" filter="url(#shadow)"/>
<rect x="1200.0" y="250.0" width="10" height="250.0" rx="5" fill="#C95A49"/>
<text x="1228.0" y="276.0" fill="#20382D" font-family="Microsoft YaHei, SimSun, sans-serif" font-size="24" font-weight="700">
<tspan x="1228.0" dy="0">行业场景层</tspan>
</text>
<text x="1228.0" y="318.0" fill="#5B6B63" font-family="Microsoft YaHei, SimSun, sans-serif" font-size="18" font-weight="400">
<tspan x="1228.0" dy="0">文旅展陈</tspan>
<tspan x="1228.0" dy="23">研学课程</tspan>
<tspan x="1228.0" dy="23">地方品牌</tspan>
<tspan x="1228.0" dy="23">内容出版</tspan>
</text>
<line x1="412.0" y1="375.0" x2="442.0" y2="375.0" stroke="#6C7A72" stroke-width="4" stroke-linecap="round" marker-end="url(#arrow)"/>
<line x1="782.0" y1="375.0" x2="812.0" y2="375.0" stroke="#6C7A72" stroke-width="4" stroke-linecap="round" marker-end="url(#arrow)"/>
<line x1="1152.0" y1="375.0" x2="1182.0" y2="375.0" stroke="#6C7A72" stroke-width="4" stroke-linecap="round" marker-end="url(#arrow)"/>
<rect x="160.0" y="650.0" width="1280.0" height="150.0" rx="28" fill="#FFFFFF" stroke="#D5DED6" stroke-width="2" filter="url(#shadow)"/>
<text x="210.0" y="692.0" fill="#20382D" font-family="Microsoft YaHei, SimSun, sans-serif" font-size="26" font-weight="700">
<tspan x="210.0" dy="0">关键约束</tspan>
</text>
<text x="350.0" y="695.0" fill="#5B6B63" font-family="Microsoft YaHei, SimSun, sans-serif" font-size="24" font-weight="400">
<tspan x="350.0" dy="0">不是餐馆点评或交易系统；核心资产是可追溯的风味知识、空间关系和专题内容生产流程。</tspan>
</text>
<rect x="210.0" y="760.0" width="114.0" height="38.0" rx="19" fill="#FFFFFF" stroke="#315F4D" stroke-width="2"/>
<text x="230.0" y="769.0" fill="#315F4D" font-family="Microsoft YaHei, SimSun, sans-serif" font-size="18" font-weight="700">
<tspan x="230.0" dy="0">来源可查</tspan>
</text>
<rect x="390.0" y="760.0" width="114.0" height="38.0" rx="19" fill="#FFFFFF" stroke="#4FA69A" stroke-width="2"/>
<text x="410.0" y="769.0" fill="#4FA69A" font-family="Microsoft YaHei, SimSun, sans-serif" font-size="18" font-weight="700">
<tspan x="410.0" dy="0">字段统一</tspan>
</text>
<rect x="570.0" y="760.0" width="114.0" height="38.0" rx="19" fill="#FFFFFF" stroke="#D6A23F" stroke-width="2"/>
<text x="590.0" y="769.0" fill="#D6A23F" font-family="Microsoft YaHei, SimSun, sans-serif" font-size="18" font-weight="700">
<tspan x="590.0" dy="0">审核发布</tspan>
</text>
<rect x="750.0" y="760.0" width="114.0" height="38.0" rx="19" fill="#FFFFFF" stroke="#4E79A7" stroke-width="2"/>
<text x="770.0" y="769.0" fill="#4E79A7" font-family="Microsoft YaHei, SimSun, sans-serif" font-size="18" font-weight="700">
<tspan x="770.0" dy="0">接口复用</tspan>
</text>
<rect x="930.0" y="760.0" width="114.0" height="38.0" rx="19" fill="#FFFFFF" stroke="#C95A49" stroke-width="2"/>
<text x="950.0" y="769.0" fill="#C95A49" font-family="Microsoft YaHei, SimSun, sans-serif" font-size="18" font-weight="700">
<tspan x="950.0" dy="0">专题交付</tspan>
</text>
</svg>