<svg xmlns="http://www.w3.org/2000/svg" width="1600" height="1000" viewBox="0 0 1600 1000">
<defs>
<filter id="shadow" x="-20%" y="-20%" width="140%" height="140%"><feDropShadow dx="0" dy="8" stdDeviation="10" flood-color="#23352D" flood-opacity="0.12"/></filter>
<marker id="arrow" viewBox="0 0 10 10" refX="8" refY="5" markerWidth="8" markerHeight="8" orient="auto-start-reverse"><path d="M 0 0 L 10 5 L 0 10 z" fill="#6C7A72"/></marker>
</defs>
<rect width="1600" height="1000" fill="#F7F9F5"/>
<text x="70.0" y="62.0" fill="#20382D" font-family="Microsoft YaHei, SimSun, sans-serif" font-size="34" font-weight="700">
<tspan x="70.0" dy="0">接口调用与数据流图</tspan>
</text>
<line x1="70.0" y1="112.0" x2="1530.0" y2="112.0" stroke="#D9E2DA" stroke-width="2" stroke-linecap="round"/>
<text x="72.0" y="132.0" fill="#5B6B63" font-family="Microsoft YaHei, SimSun, sans-serif" font-size="21" font-weight="400">
<tspan x="72.0" dy="0">按页面使用场景分行表达，避免把浏览器、API、查询层和数据源混在同一条线上。</tspan>
</text>
<text x="90.0" y="180.0" fill="#20382D" font-family="Microsoft YaHei, SimSun, sans-serif" font-size="22" font-weight="700">
<tspan x="90.0" dy="0">浏览器页面</tspan>
</text>
<text x="455.0" y="180.0" fill="#20382D" font-family="Microsoft YaHei, SimSun, sans-serif" font-size="22" font-weight="700">
<tspan x="455.0" dy="0">服务接口</tspan>
</text>
<text x="820.0" y="180.0" fill="#20382D" font-family="Microsoft YaHei, SimSun, sans-serif" font-size="22" font-weight="700">
<tspan x="820.0" dy="0">服务内部处理</tspan>
</text>
<text x="1185.0" y="180.0" fill="#20382D" font-family="Microsoft YaHei, SimSun, sans-serif" font-size="22" font-weight="700">
<tspan x="1185.0" dy="0">数据源 / 渲染</tspan>
</text>
<rect x="90.0" y="245.0" width="270.0" height="135.0" rx="18" fill="#FFFFFF" stroke="#D5DED6" stroke-width="2" filter="url(#shadow)"/>
<rect x="90.0" y="245.0" width="10" height="135.0" rx="5" fill="#315F4D"/>
<text x="118.0" y="271.0" fill="#20382D" font-family="Microsoft YaHei, SimSun, sans-serif" font-size="20" font-weight="700">
<tspan x="118.0" dy="0">地图探索页</tspan>
</text>
<text x="118.0" y="313.0" fill="#5B6B63" font-family="Microsoft YaHei, SimSun, sans-serif" font-size="15" font-weight="400">
<tspan x="118.0" dy="0">flavors</tspan>
<tspan x="118.0" dy="20">routes</tspan>
<tspan x="118.0" dy="20">search</tspan>
</text>
<rect x="455.0" y="245.0" width="270.0" height="135.0" rx="18" fill="#FFFFFF" stroke="#D5DED6" stroke-width="2" filter="url(#shadow)"/>
<rect x="455.0" y="245.0" width="10" height="135.0" rx="5" fill="#315F4D"/>
<text x="483.0" y="271.0" fill="#20382D" font-family="Microsoft YaHei, SimSun, sans-serif" font-size="20" font-weight="700">
<tspan x="483.0" dy="0">业务 API</tspan>
</text>
<text x="483.0" y="313.0" fill="#5B6B63" font-family="Microsoft YaHei, SimSun, sans-serif" font-size="15" font-weight="400">
<tspan x="483.0" dy="0">/api/flavors</tspan>
<tspan x="483.0" dy="20">/api/routes</tspan>
<tspan x="483.0" dy="20">/api/search</tspan>
</text>
<rect x="820.0" y="245.0" width="270.0" height="135.0" rx="18" fill="#FFFFFF" stroke="#D5DED6" stroke-width="2" filter="url(#shadow)"/>
<rect x="820.0" y="245.0" width="10" height="135.0" rx="5" fill="#315F4D"/>
<text x="848.0" y="271.0" fill="#20382D" font-family="Microsoft YaHei, SimSun, sans-serif" font-size="20" font-weight="700">
<tspan x="848.0" dy="0">PostGIS 查询层</tspan>
</text>
<text x="848.0" y="313.0" fill="#5B6B63" font-family="Microsoft YaHei, SimSun, sans-serif" font-size="15" font-weight="400">
<tspan x="848.0" dy="0">空间索引</tspan>
<tspan x="848.0" dy="20">关系查询</tspan>
<tspan x="848.0" dy="20">展示对象组装</tspan>
</text>
<rect x="1185.0" y="245.0" width="270.0" height="135.0" rx="18" fill="#FFFFFF" stroke="#D5DED6" stroke-width="2" filter="url(#shadow)"/>
<rect x="1185.0" y="245.0" width="10" height="135.0" rx="5" fill="#315F4D"/>
<text x="1213.0" y="271.0" fill="#20382D" font-family="Microsoft YaHei, SimSun, sans-serif" font-size="20" font-weight="700">
<tspan x="1213.0" dy="0">数据库</tspan>
</text>
<text x="1213.0" y="313.0" fill="#5B6B63" font-family="Microsoft YaHei, SimSun, sans-serif" font-size="15" font-weight="400">
<tspan x="1213.0" dy="0">PostgreSQL</tspan>
<tspan x="1213.0" dy="20">PostGIS</tspan>
</text>
<line x1="378.0" y1="312.5" x2="437.0" y2="312.5" stroke="#6C7A72" stroke-width="3" stroke-linecap="round" marker-end="url(#arrow)"/>
<line x1="743.0" y1="312.5" x2="802.0" y2="312.5" stroke="#6C7A72" stroke-width="3" stroke-linecap="round" marker-end="url(#arrow)"/>
<line x1="1108.0" y1="312.5" x2="1167.0" y2="312.5" stroke="#6C7A72" stroke-width="3" stroke-linecap="round" marker-end="url(#arrow)"/>
<rect x="90.0" y="425.0" width="270.0" height="135.0" rx="18" fill="#FFFFFF" stroke="#D5DED6" stroke-width="2" filter="url(#shadow)"/>
<rect x="90.0" y="425.0" width="10" height="135.0" rx="5" fill="#C95A49"/>
<text x="118.0" y="451.0" fill="#20382D" font-family="Microsoft YaHei, SimSun, sans-serif" font-size="20" font-weight="700">
<tspan x="118.0" dy="0">食材传播页</tspan>
</text>
<text x="118.0" y="493.0" fill="#5B6B63" font-family="Microsoft YaHei, SimSun, sans-serif" font-size="15" font-weight="400">
<tspan x="118.0" dy="0">ingredient list</tspan>
<tspan x="118.0" dy="20">detail</tspan>
<tspan x="118.0" dy="20">path playback</tspan>
</text>
<rect x="455.0" y="425.0" width="270.0" height="135.0" rx="18" fill="#FFFFFF" stroke="#D5DED6" stroke-width="2" filter="url(#shadow)"/>
<rect x="455.0" y="425.0" width="10" height="135.0" rx="5" fill="#C95A49"/>
<text x="483.0" y="451.0" fill="#20382D" font-family="Microsoft YaHei, SimSun, sans-serif" font-size="20" font-weight="700">
<tspan x="483.0" dy="0">传播专题 API</tspan>
</text>
<text x="483.0" y="493.0" fill="#5B6B63" font-family="Microsoft YaHei, SimSun, sans-serif" font-size="15" font-weight="400">
<tspan x="483.0" dy="0">/ingredients</tspan>
<tspan x="483.0" dy="20">/spread/:id</tspan>
<tspan x="483.0" dy="20">/timeline</tspan>
</text>
<rect x="820.0" y="425.0" width="270.0" height="135.0" rx="18" fill="#FFFFFF" stroke="#D5DED6" stroke-width="2" filter="url(#shadow)"/>
<rect x="820.0" y="425.0" width="10" height="135.0" rx="5" fill="#D6A23F"/>
<text x="848.0" y="451.0" fill="#20382D" font-family="Microsoft YaHei, SimSun, sans-serif" font-size="20" font-weight="700">
<tspan x="848.0" dy="0">专题数据读取</tspan>
</text>
<text x="848.0" y="493.0" fill="#5B6B63" font-family="Microsoft YaHei, SimSun, sans-serif" font-size="15" font-weight="400">
<tspan x="848.0" dy="0">时间线</tspan>
<tspan x="848.0" dy="20">路径段</tspan>
<tspan x="848.0" dy="20">参考文献</tspan>
</text>
<rect x="1185.0" y="425.0" width="270.0" height="135.0" rx="18" fill="#FFFFFF" stroke="#D5DED6" stroke-width="2" filter="url(#shadow)"/>
<rect x="1185.0" y="425.0" width="10" height="135.0" rx="5" fill="#D6A23F"/>
<text x="1213.0" y="451.0" fill="#20382D" font-family="Microsoft YaHei, SimSun, sans-serif" font-size="20" font-weight="700">
<tspan x="1213.0" dy="0">数据文件</tspan>
</text>
<text x="1213.0" y="493.0" fill="#5B6B63" font-family="Microsoft YaHei, SimSun, sans-serif" font-size="15" font-weight="400">
<tspan x="1213.0" dy="0">JSON</tspan>
<tspan x="1213.0" dy="20">GeoJSON</tspan>
<tspan x="1213.0" dy="20">references</tspan>
</text>
<line x1="378.0" y1="492.5" x2="437.0" y2="492.5" stroke="#6C7A72" stroke-width="3" stroke-linecap="round" marker-end="url(#arrow)"/>
<line x1="743.0" y1="492.5" x2="802.0" y2="492.5" stroke="#6C7A72" stroke-width="3" stroke-linecap="round" marker-end="url(#arrow)"/>
<line x1="1108.0" y1="492.5" x2="1167.0" y2="492.5" stroke="#6C7A72" stroke-width="3" stroke-linecap="round" marker-end="url(#arrow)"/>
<rect x="90.0" y="605.0" width="270.0" height="135.0" rx="18" fill="#FFFFFF" stroke="#D5DED6" stroke-width="2" filter="url(#shadow)"/>
<rect x="90.0" y="605.0" width="10" height="135.0" rx="5" fill="#4FA69A"/>
<text x="118.0" y="631.0" fill="#20382D" font-family="Microsoft YaHei, SimSun, sans-serif" font-size="20" font-weight="700">
<tspan x="118.0" dy="0">地图渲染请求</tspan>
</text>
<text x="118.0" y="673.0" fill="#5B6B63" font-family="Microsoft YaHei, SimSun, sans-serif" font-size="15" font-weight="400">
<tspan x="118.0" dy="0">base map</tspan>
<tspan x="118.0" dy="20">layers</tspan>
<tspan x="118.0" dy="20">tiles</tspan>
</text>
<rect x="455.0" y="605.0" width="270.0" height="135.0" rx="18" fill="#FFFFFF" stroke="#D5DED6" stroke-width="2" filter="url(#shadow)"/>
<rect x="455.0" y="605.0" width="10" height="135.0" rx="5" fill="#4FA69A"/>
<text x="483.0" y="631.0" fill="#20382D" font-family="Microsoft YaHei, SimSun, sans-serif" font-size="20" font-weight="700">
<tspan x="483.0" dy="0">瓦片 API</tspan>
</text>
<text x="483.0" y="673.0" fill="#5B6B63" font-family="Microsoft YaHei, SimSun, sans-serif" font-size="15" font-weight="400">
<tspan x="483.0" dy="0">/tiles/{z}/{x}/{y}</tspan>
<tspan x="483.0" dy="20">/vector</tspan>
<tspan x="483.0" dy="20">/status</tspan>
</text>
<rect x="820.0" y="605.0" width="270.0" height="135.0" rx="18" fill="#FFFFFF" stroke="#D5DED6" stroke-width="2" filter="url(#shadow)"/>
<rect x="820.0" y="605.0" width="10" height="135.0" rx="5" fill="#4FA69A"/>
<text x="848.0" y="631.0" fill="#20382D" font-family="Microsoft YaHei, SimSun, sans-serif" font-size="20" font-weight="700">
<tspan x="848.0" dy="0">瓦片渲染服务</tspan>
</text>
<text x="848.0" y="673.0" fill="#5B6B63" font-family="Microsoft YaHei, SimSun, sans-serif" font-size="15" font-weight="400">
<tspan x="848.0" dy="0">rio-tiler</tspan>
<tspan x="848.0" dy="20">GeoJSON / MVT</tspan>
<tspan x="848.0" dy="20">LRU cache</tspan>
</text>
<rect x="1185.0" y="605.0" width="270.0" height="135.0" rx="18" fill="#FFFFFF" stroke="#D5DED6" stroke-width="2" filter="url(#shadow)"/>
<rect x="1185.0" y="605.0" width="10" height="135.0" rx="5" fill="#4E79A7"/>
<text x="1213.0" y="631.0" fill="#20382D" font-family="Microsoft YaHei, SimSun, sans-serif" font-size="20" font-weight="700">
<tspan x="1213.0" dy="0">浏览器渲染</tspan>
</text>
<text x="1213.0" y="673.0" fill="#5B6B63" font-family="Microsoft YaHei, SimSun, sans-serif" font-size="15" font-weight="400">
<tspan x="1213.0" dy="0">MapLibre</tspan>
<tspan x="1213.0" dy="20">Deck.gl</tspan>
<tspan x="1213.0" dy="20">ECharts</tspan>
</text>
<line x1="378.0" y1="672.5" x2="437.0" y2="672.5" stroke="#6C7A72" stroke-width="3" stroke-linecap="round" marker-end="url(#arrow)"/>
<line x1="743.0" y1="672.5" x2="802.0" y2="672.5" stroke="#6C7A72" stroke-width="3" stroke-linecap="round" marker-end="url(#arrow)"/>
<line x1="1108.0" y1="672.5" x2="1167.0" y2="672.5" stroke="#6C7A72" stroke-width="3" stroke-linecap="round" marker-end="url(#arrow)"/>
<rect x="415.0" y="800.0" width="770.0" height="75.0" rx="24" fill="#FFFFFF" stroke="#D5DED6" stroke-width="2" filter="url(#shadow)"/>
<text x="460.0" y="828.0" fill="#20382D" font-family="Microsoft YaHei, SimSun, sans-serif" font-size="21" font-weight="400">
<tspan x="460.0" dy="0">接口设计原则：前端消费稳定展示对象，服务层屏蔽数据库表结构和数据文件差异。</tspan>
</text>
</svg>